<?xml version="1.0" encoding="UTF-8"?>
<svg id="Calque_1" xmlns="http://www.w3.org/2000/svg" xmlns:xlink="http://www.w3.org/1999/xlink" version="1.1" viewBox="0 0 560 185.01">
  <!-- Generator: Adobe Illustrator 30.0.0, SVG Export Plug-In . SVG Version: 2.1.1 Build 123)  -->
  <defs>
    <style>
      .st0 {
        fill: #58acde;
      }

      .st1 {
        fill: url(#Dégradé_sans_nom);
      }

      .st2 {
        fill: #305da3;
      }
    </style>
    <linearGradient id="Dégradé_sans_nom" data-name="Dégradé sans nom" x1="98.69" y1="186.12" x2="98.69" y2="4.95" gradientTransform="translate(0 188) scale(1 -1)" gradientUnits="userSpaceOnUse">
      <stop offset="0" stop-color="#264b9a"/>
      <stop offset=".3" stop-color="#3176b9"/>
      <stop offset=".6" stop-color="#3a9cd5"/>
      <stop offset=".85" stop-color="#40b3e6"/>
      <stop offset="1" stop-color="#43bced"/>
    </linearGradient>
  </defs>
  <path class="st1" d="M31.89,69.38l21.45,12.39v17.77l-1.9,1.1-16.85,9.59c-.56-.27-1.19-.42-1.85-.42-2.38,0-4.31,1.93-4.31,4.31s1.93,4.31,4.31,4.31,4.25-1.87,4.3-4.21l3.14-1.79v.08l15.9-9.18,17.17,9.91v27.94l-7.72,6.64c-.42-.14-.88-.22-1.35-.22-2.38,0-4.31,1.93-4.31,4.31s1.93,4.31,4.31,4.31,4.31-1.93,4.31-4.31c0-.25-.02-.49-.06-.72l4.82-4.15h0l.15-.13,2.08-1.79,2.08,1.79.14.13,4.82,4.15c-.04.23-.06.48-.06.72,0,2.38,1.93,4.31,4.31,4.31s4.31-1.93,4.31-4.31-1.93-4.31-4.31-4.31c-.47,0-.92.08-1.35.22l-7.72-6.64v-30.13l-19.92-11.5v-17.77l17.97-10.38,9.05,5.72c1.03.65,2.42.33,3.06-.69.65-1.03.34-2.42-.69-3.06l-9.47-5.98v-24.72c1.09-.78,1.81-2.06,1.81-3.51,0-2.38-1.93-4.31-4.31-4.31s-4.31,1.93-4.31,4.31c0,1.68.96,3.13,2.36,3.84v25.09l-17.17,9.91-19.59-11.31v-28.27l.02-.14c.8-5.06,3.29-9.09,8.08-11.12l8.73-3.89v31.72c-1.25.75-2.08,2.12-2.08,3.69,0,2.38,1.93,4.31,4.31,4.31s4.31-1.93,4.31-4.31c0-1.57-.84-2.93-2.08-3.69V21.28l11.12-4.95.05-.02c5.28-2.01,9.86-.29,14.33,2.63l.11.07,6.44,5.62c6.81,5.33,6.81,8.64,6.81,16.4v56.89l-11.43-5.9c-.09-2.3-1.98-4.14-4.3-4.14s-4.31,1.93-4.31,4.31,1.93,4.31,4.31,4.31c.76,0,1.48-.2,2.1-.54l13.48,7.73v44.39c.09,6.11-1.77,10.7-5.46,13.87l-12.44,9.73-.1.06c-4.94,2.94-10.09,3.11-15.24.64l-.06-.03-19.2-10.95h-.02c-4.52-2.72-7.07-6.76-7.44-12.03v-8.78l18.14-10.69c.62.34,1.32.53,2.08.53,2.38,0,4.31-1.93,4.31-4.31s-1.93-4.31-4.31-4.31-4.27,1.89-4.3,4.24l-17.03,10.09-16.82-14.66-.03-.03c-2.56-2.46-3.71-5.53-3.89-9.04v-11.71l15.87-9.1c.62.35,1.33.54,2.1.54,2.38,0,4.31-1.93,4.31-4.31s-1.93-4.31-4.31-4.31-4.26,1.88-4.3,4.21l-13.66,7.84v-18.27c.23-5.37,1.93-10.53,6.93-13.19l.05-.02,10.51-4.85-.25,10.15h-.04ZM111.98,163.5c0,5.71,4.63,10.33,10.33,10.33s10.33-4.63,10.33-10.33-4.63-10.33-10.33-10.33-10.33,4.63-10.33,10.33ZM156.94,109.16c0,5.71,4.63,10.33,10.33,10.33s10.33-4.63,10.33-10.33-4.63-10.33-10.33-10.33-10.33,4.63-10.33,10.33ZM100.99,86.95c0,5.71,4.63,10.33,10.33,10.33s10.33-4.63,10.33-10.33-4.63-10.33-10.33-10.33-10.33,4.63-10.33,10.33ZM109.57,24.68c0,4.74,3.84,8.58,8.58,8.58s8.58-3.84,8.58-8.58-3.84-8.58-8.58-8.58-8.58,3.84-8.58,8.58ZM148.62,31.76c0,2.67,2.16,4.83,4.83,4.83s4.83-2.16,4.83-4.83-2.16-4.83-4.83-4.83-4.83,2.16-4.83,4.83ZM133.22,72.36c0,4.57,3.7,8.27,8.27,8.27s8.27-3.7,8.27-8.27-3.7-8.27-8.27-8.27-8.27,3.7-8.27,8.27ZM115.37,113.9c0,5.44,4.41,9.86,9.86,9.86s9.86-4.41,9.86-9.86-4.41-9.86-9.86-9.86-9.86,4.41-9.86,9.86ZM143.76,148.94c0,5.34,4.33,9.68,9.68,9.68s9.68-4.33,9.68-9.68-4.33-9.68-9.68-9.68-9.68,4.33-9.68,9.68h0ZM145.11,126.46c0,3.18,2.58,5.76,5.76,5.76s5.76-2.58,5.76-5.76-2.58-5.76-5.76-5.76-5.76,2.58-5.76,5.76ZM165.24,72.82c0,4.82,3.91,8.73,8.73,8.73s8.73-3.91,8.73-8.73-3.91-8.73-8.73-8.73-8.73,3.91-8.73,8.73ZM134.84,92.49c0,4.12,3.34,7.47,7.46,7.47s7.47-3.34,7.47-7.47-3.34-7.47-7.47-7.47-7.46,3.34-7.46,7.47ZM104.64,49.22c0,4.92,3.99,8.91,8.91,8.91s8.91-3.99,8.91-8.91-3.99-8.91-8.91-8.91-8.91,3.99-8.91,8.91ZM102.18,138.92c0,4.12,3.34,7.47,7.47,7.47s7.46-3.34,7.46-7.47-3.34-7.47-7.46-7.47-7.47,3.34-7.47,7.47ZM125.18,38.86c0,4.92,3.99,8.91,8.91,8.91s8.91-3.99,8.91-8.91-3.99-8.91-8.91-8.91-8.91,3.99-8.91,8.91ZM143.03,53.24c0,2.97,2.4,5.37,5.37,5.37s5.37-2.4,5.37-5.37-2.4-5.37-5.37-5.37-5.37,2.4-5.37,5.37ZM131.16,140.64c0,2.16,1.75,3.92,3.92,3.92s3.92-1.75,3.92-3.92-1.75-3.92-3.92-3.92-3.92,1.75-3.92,3.92ZM116.77,68.07c0,3.1,2.51,5.61,5.61,5.61s5.61-2.51,5.61-5.61-2.51-5.61-5.61-5.61-5.61,2.51-5.61,5.61ZM158.58,58.12c0,2.4,1.94,4.34,4.34,4.34s4.34-1.94,4.34-4.34-1.94-4.34-4.34-4.34-4.34,1.94-4.34,4.34ZM165.24,128.8c0,1.89,1.53,3.42,3.43,3.42s3.42-1.53,3.42-3.42-1.53-3.42-3.42-3.42-3.43,1.53-3.43,3.42ZM169.49,91.27c0,2.23,1.81,4.03,4.04,4.03s4.03-1.81,4.03-4.03-1.81-4.03-4.03-4.03-4.04,1.81-4.04,4.03ZM136.72,161.4c0,1.86,1.5,3.36,3.36,3.36s3.36-1.5,3.36-3.36-1.5-3.36-3.36-3.36-3.36,1.5-3.36,3.36ZM101.1,23.48c0,1.88,1.52,3.4,3.4,3.4s3.4-1.52,3.4-3.4-1.52-3.4-3.4-3.4-3.4,1.52-3.4,3.4ZM132.12,20.09c0,2.51,2.04,4.55,4.55,4.55s4.55-2.04,4.55-4.55-2.04-4.55-4.55-4.55-4.55,2.04-4.55,4.55ZM124.03,12.17c0,1.86,1.51,3.37,3.37,3.37s3.37-1.51,3.37-3.37-1.51-3.37-3.37-3.37-3.37,1.51-3.37,3.37ZM101.43,103.87c0,2.16,1.75,3.92,3.92,3.92s3.92-1.75,3.92-3.92-1.75-3.92-3.92-3.92-3.92,1.75-3.92,3.92ZM101.43,68.07c0,1.89,1.53,3.42,3.43,3.42s3.42-1.53,3.42-3.42-1.53-3.42-3.42-3.42-3.43,1.53-3.43,3.42ZM163.05,42.71c0,3.1,2.51,5.61,5.61,5.61s5.61-2.51,5.61-5.61-2.51-5.61-5.61-5.61-5.61,2.51-5.61,5.61ZM121.95,163.69l.72-.37-12.56-24.38,15.69-25.2-19.96-10.07,5.87-16.59v-.27l-6.42-18.73,8.63-18.7.03-.1,4.46-23.8,15.97,15.68,2.6-20.38,16.01,11.13-5.19,22.06,20.87-10.43-6.13,14.4v.3l10.96,16.59.78-.13-4.41-32h-.2l-.39-.37-20.31,10.15,4.92-20.91-17-11.82-9.89-8.64-1.04-1.36-.32.91.74.97.06.06,9.36,8.18-17.7,4.39-10.54-.92h-2.54l-1.09-.25.23.76,13.48,1.18-4.51,24.05-8.68,18.8-.02.3,6.43,18.75-6.06,17.13,19.8,9.99-15.47,24.83,12.77,24.79h0l.05.02ZM133.79,39.46l-14.84-14.56,17.24-4.28-2.41,18.83h0ZM173.3,72.74l-9.93-14.61,5.68-13.35,4.25,27.97h0ZM104.85,67.66v.81h18.16l-8.92-19.04,19.91-8.64,13.92,12.57-6.99,19.37,32.69,2.36-.53,16.17-6.2,17.77-.02.16,1.35,19.14-17.23-2.26-25.59-12.53-.56.5,9.79,26.56-13.07,23.39,18.56-2.19.23-.11,13.36-12.46.05-.05,15.22-20.14.08-.27-1.38-19.56,6.22-17.81v-.24l.35-16.84-32.19-2.32,6.82-18.89c-4.9-4.43-9.8-8.87-14.71-13.28-7.05,3.05-14.11,6.11-21.15,9.18l8.73,18.64h-16.9ZM153.13,148.67l-13.23,12.34-16.85,1.99,12.47-22.33-9.57-25.96,24.74,12.12.13.04,17.1,2.25-14.78,19.56h-.01ZM139.69,161.49l.79-.19-4.59-19.04,18.03,7.31-2.73-23.94c-5.52,4.95-11.04,9.91-16.56,14.86l.11.45-25.06-2.43-.08.81,24.98,2.42.38.16,4.72,19.6h0ZM135.53,140.78l15.03-13.49,2.4,21.02-17.3-7.01-.13-.52h0ZM125.54,114.15l16.57-20.77,8.55,33.89,17.24-18.19-24.33-16.24,29.97-1.17.19-.75-32.66-19.29.83,20.72-16.99,21.29.63.5h0ZM172.13,90.92l-29.44,1.15-.76-18.98,30.2,17.83ZM151.09,125.65l-8.13-32.23,23.7,15.82-15.56,16.42h0ZM168.42,43.03l.47-.66-15.21-10.95-.62.46,9.37,26.06-21.03,13.98-18.48-4.15,11.52-27.31-.75-.31-11.89,28.2c6.59,1.48,13.18,2.95,19.76,4.44l21.84-14.52-9.14-25.43,14.15,10.19h.01ZM110.98,86.74l.7.41,10.76-18.38,19.18,23.51-36.71,11.3,4.34,35.38.81-.1-4.26-34.71,37.21-11.46c-6.89-8.45-13.78-16.9-20.67-25.34l-11.35,19.38h0ZM127.39,11.11l-1.77-.33-.27.77.71.13-7.84,12.14-.2-.47h-.88l.93,2.19,8.99-13.93.33-.51h0ZM104.11,23.62l9.62,26.95.76-.27-9.62-26.95s-.76.27-.76.27ZM111.25,87.35l30.98,5.55.14-.8-30.98-5.55-.14.8ZM98.82,167.63c0,1.58,1.28,2.87,2.87,2.87s2.87-1.28,2.87-2.87-1.28-2.87-2.87-2.87-2.87,1.28-2.87,2.87ZM121.87,163.29l-19.63,3.82,7.39-28.04-.78-.21-7.72,29.29,20.9-4.06-.15-.8h-.01Z"/>
  <path class="st2" d="M318.61,106.19c-6.75,0-12.86-1.56-18.35-4.67s-9.83-7.3-13.03-12.58c-3.2-5.27-4.79-11.19-4.79-17.76s1.53-12.49,4.6-17.76c3.07-5.27,7.24-9.46,12.51-12.58,5.27-3.11,11.15-4.67,17.64-4.67s12.23,1.58,17.24,4.73c5.01,3.16,8.97,7.48,11.86,12.97,2.9,5.49,4.34,11.69,4.34,18.61h0c0,2.58-2.09,4.67-4.67,4.67h-45.38c.78,2.68,2.05,5.1,3.83,7.26,1.77,2.16,3.97,3.82,6.61,4.99,2.64,1.17,5.47,1.75,8.49,1.75s5.81-.45,8.36-1.36c.83-.3,1.62-.63,2.37-1.02,2.84-1.44,6.26-1.04,8.61,1.1h0c3.97,3.62,3.01,10.1-1.83,12.43-1.23.59-2.46,1.11-3.71,1.55-4.37,1.56-9.27,2.33-14.71,2.33h.01ZM300.32,64.44h32.8c-.61-2.68-1.71-5.04-3.31-7.07s-3.5-3.63-5.71-4.8-4.65-1.75-7.33-1.75-5.14.56-7.39,1.69-4.15,2.7-5.71,4.73c-1.56,2.03-2.68,4.43-3.37,7.2h.02Z"/>
  <path class="st2" d="M273.74,67.83v29.04c0,4.91-3.98,8.89-8.88,8.89h0c-4.9,0-8.88-3.98-8.89-8.88v-31.82c0-7.67-6.22-13.88-13.88-13.88s-13.88,6.22-13.88,13.88v31.91c0,4.9-3.98,8.88-8.88,8.88h0c-4.9,0-8.88-3.98-8.88-8.88v-29.14c0-17.48,14.17-31.64,31.64-31.64s31.66,14.17,31.66,31.64h0Z"/>
  <path class="st2" d="M471.58,42.9c0-3.93-3.19-7.12-7.12-7.12h-2.44c-16.74,0-26.81,9.35-26.81,26.31v35.22c0,4.9,3.98,8.88,8.88,8.88h0c4.9,0,8.88-3.98,8.88-8.88v-37.14c0-7.77,4.75-10.15,9.05-10.15h2.44c3.93,0,7.12-3.19,7.12-7.12h0Z"/>
  <path class="st2" d="M360.06,74.37v-29.04c0-4.91,3.98-8.89,8.88-8.89h0c4.9,0,8.88,3.98,8.89,8.88v31.52c0,7.67,6.22,13.88,13.88,13.88s13.88-6.22,13.88-13.88v-31.62c0-4.9,3.98-8.88,8.88-8.88h0c4.9,0,8.88,3.98,8.88,8.88v29.14c0,17.48-14.17,31.64-31.64,31.64s-31.66-14.17-31.66-31.64h0Z"/>
  <path class="st2" d="M507.3,106.01c-6.74,0-12.86-1.56-18.35-4.67-5.49-3.11-9.81-7.3-12.96-12.58-3.16-5.27-4.73-11.19-4.73-17.76s1.57-12.51,4.73-17.83c3.15-5.32,7.48-9.53,12.96-12.64,5.49-3.11,11.61-4.67,18.35-4.67s12.86,1.56,18.35,4.67c5.49,3.11,9.81,7.33,12.96,12.64,3.16,5.32,4.74,11.26,4.74,17.83s-1.58,12.49-4.74,17.76c-3.16,5.27-7.48,9.47-12.96,12.58-5.49,3.11-11.6,4.67-18.35,4.67h0ZM507.25,90.85c10.31,0,18.67-9,18.67-20.11s-8.36-20.11-18.67-20.11-18.67,9-18.67,20.11,8.36,20.11,18.67,20.11h0Z"/>
  <path class="st0" d="M224.23,150.75c-2.25,0-4.34-.38-6.25-1.13-1.91-.76-3.57-1.8-4.99-3.15-1.41-1.34-2.51-2.93-3.3-4.77-.79-1.84-1.18-3.83-1.18-5.97,0-2.28.39-4.39,1.18-6.33.78-1.94,1.88-3.63,3.3-5.07,1.41-1.44,3.07-2.56,4.99-3.36,1.91-.8,3.99-1.2,6.25-1.2,2.03,0,3.92.34,5.67,1.01s3.28,1.6,4.58,2.78,2.32,2.57,3.06,4.15c.74,1.58,1.11,3.29,1.11,5.11s-.34,3.55-1.03,4.99c-.68,1.44-1.63,2.58-2.85,3.4-1.21.83-2.6,1.24-4.17,1.24-2.03,0-3.45-.58-4.28-1.75-.66.6-1.37,1.05-2.14,1.35s-1.56.45-2.35.45c-1.17,0-2.23-.29-3.17-.88-.94-.58-1.68-1.37-2.23-2.35-.54-.98-.81-2.09-.81-3.32,0-1.46.34-2.77,1.01-3.94s1.58-2.1,2.72-2.8,2.41-1.05,3.81-1.05c1.6,0,2.94.49,4.02,1.46h0c.13-.53.6-.9,1.14-.9h1.39c.66,0,1.15.61,1.02,1.25l-1.54,7.35c-.17.83-.09,1.46.26,1.88s.91.64,1.71.64c.88,0,1.69-.29,2.42-.88.73-.58,1.29-1.39,1.69-2.42.4-1.03.6-2.2.6-3.51,0-2.08-.52-3.94-1.56-5.59-1.04-1.64-2.45-2.93-4.22-3.87s-3.77-1.41-5.99-1.41c-1.8,0-3.47.34-5.03,1.01s-2.92,1.61-4.09,2.82-2.08,2.63-2.74,4.26c-.66,1.63-.98,3.38-.98,5.26,0,2.48.56,4.67,1.67,6.57,1.11,1.9,2.65,3.39,4.6,4.47,1.95,1.08,4.2,1.63,6.74,1.63,2.16,0,4.17-.37,6.02-1.1.62-.25,1.32.05,1.58.66h0c.28.64-.04,1.38-.69,1.65-.93.38-1.86.67-2.81.89-1.34.31-2.73.47-4.15.47h0ZM222.69,139.53c.7,0,1.35-.16,1.94-.47s1-.91,1.05-1.59c.02-.26.05-.52.09-.64l.6-3.19c.13-.67-.13-1.36-.69-1.75-.16-.11-.33-.21-.51-.3-.57-.27-1.21-.41-1.92-.41-.61,0-1.22.14-1.76.42-.77.41-1.37,1.01-1.8,1.78-.37.67-.56,1.42-.56,2.25,0,1.14.33,2.08.98,2.8.66.73,1.51,1.09,2.57,1.09h0Z"/>
  <path class="st0" d="M440.92,146.87c-2.17,0-4.13-.51-5.89-1.52-1.75-1.01-3.15-2.38-4.17-4.11-1.03-1.73-1.54-3.66-1.54-5.8s.51-4.07,1.54-5.8,2.42-3.1,4.17-4.11,3.72-1.52,5.89-1.52,4.17.51,5.93,1.52c1.75,1.01,3.15,2.38,4.17,4.11,1.03,1.73,1.54,3.66,1.54,5.8s-.51,4.07-1.54,5.8-2.42,3.1-4.17,4.11-3.73,1.52-5.93,1.52ZM440.92,142.51c1.26,0,2.39-.31,3.4-.94,1.01-.63,1.82-1.48,2.42-2.55s.9-2.26.9-3.57-.3-2.54-.9-3.6c-.6-1.06-1.41-1.9-2.42-2.53s-2.15-.94-3.4-.94-2.35.31-3.38.94-1.83,1.47-2.42,2.53c-.59,1.06-.88,2.25-.88,3.6s.29,2.5.88,3.57c.58,1.07,1.39,1.92,2.42,2.55s2.15.94,3.38.94Z"/>
  <path class="st0" d="M272.75,146.82c-1.56,0-2.93-.28-4.14-.85-1.2-.57-2.14-1.35-2.82-2.35s-1.02-2.16-1.02-3.46c0-2.09.78-3.72,2.35-4.88s3.73-1.74,6.47-1.74c2.04,0,3.93.34,5.68,1.02v-1.95c0-1.41-.42-2.47-1.25-3.18-.83-.71-2.07-1.06-3.71-1.06-.96,0-1.98.14-3.05.42-.6.16-1.24.37-1.94.64-1,.39-2.14-.05-2.61-1.03h0c-.52-1.09,0-2.39,1.14-2.81.92-.35,1.82-.63,2.69-.85,1.5-.38,3.01-.57,4.54-.57,2.88,0,5.12.69,6.7,2.08,1.58,1.39,2.38,3.34,2.38,5.85v12.6c0,.96-.78,1.74-1.74,1.74h-1.4c-.96,0-1.74-.78-1.74-1.74h0c-.93.74-1.94,1.27-3.01,1.61-1.08.34-2.25.51-3.52.51h0ZM269.48,140.04c0,.96.41,1.73,1.23,2.31s1.91.87,3.27.87c1.05,0,2.02-.15,2.91-.45.6-.2,1.15-.47,1.67-.8.45-.29.73-.79.73-1.32v-1.65c0-.66-.41-1.25-1.02-1.47-.45-.16-.9-.29-1.37-.4-.83-.18-1.75-.28-2.74-.28-1.44,0-2.58.28-3.41.85-.83.57-1.25,1.34-1.25,2.33h-.02Z"/>
  <path class="st0" d="M481.81,146.76c-2.21,0-4.2-.5-5.96-1.51-1.77-1-3.17-2.37-4.22-4.11s-1.57-3.68-1.57-5.83.5-4.09,1.51-5.81c1-1.72,2.35-3.09,4.05-4.11,1.69-1.02,3.59-1.53,5.68-1.53s3.95.52,5.57,1.55,2.91,2.43,3.85,4.2c.95,1.76,1.42,3.77,1.42,6.01h0c0,.74-.6,1.33-1.33,1.33h-14.7c-.49,0-.83.48-.67.95.25.71.59,1.36,1.03,1.94.63.83,1.43,1.49,2.41,1.96s2.02.71,3.14.71c1.03,0,2.02-.16,2.95-.47.4-.13.77-.3,1.11-.48.82-.45,1.84-.32,2.52.32h0c1.08,1.02.82,2.81-.5,3.48-.53.27-1.06.49-1.6.68-1.41.49-2.97.73-4.69.73h0ZM476.11,133.29h10.09c.5,0,.86-.49.7-.97-.22-.64-.52-1.22-.91-1.74-.57-.77-1.27-1.38-2.09-1.83-.82-.44-1.72-.67-2.69-.67s-1.93.22-2.78.65-1.55,1.03-2.11,1.81c-.38.53-.69,1.12-.91,1.78-.16.48.19.97.7.97h0Z"/>
  <path class="st0" d="M464.39,146.45c-2.27,0-4-.53-5.18-1.58s-1.77-2.58-1.77-4.6v-10.99c0-.52-.42-.94-.94-.94h-1.55c-1.16,0-2.11-.94-2.11-2.11h0c0-1.16.94-2.11,2.11-2.11h1.55c.52,0,.94-.42.94-.94v-2.66c0-1.16.8-2.17,1.93-2.43h0c1.56-.36,3.05.83,3.05,2.43v2.66c0,.52.42.94.94.94h3.3c1.16,0,2.11.94,2.11,2.11h0c0,1.16-.94,2.11-2.11,2.11h-3.3c-.52,0-.94.42-.94.94v9.92c0,1.08.23,1.85.7,2.3s1.27.68,2.41.68c.6,0,1.13-.04,1.6-.13h.01c.78-.14,1.5.45,1.5,1.25v1.55c0,.6-.42,1.1-1,1.23-.33.07-.7.14-1.09.19-.82.11-1.55.17-2.17.17h0Z"/>
  <path class="st0" d="M423.45,121.01c-.81,0-1.51-.29-2.1-.87s-.89-1.28-.89-2.12.3-1.54.89-2.12c.59-.58,1.29-.87,2.1-.87s1.54.29,2.12.87.87,1.28.87,2.12-.29,1.54-.87,2.12-1.28.87-2.12.87ZM420.94,143.92v-17.22c0-1.4,1.13-2.53,2.53-2.53h0c1.4,0,2.53,1.13,2.53,2.53v17.22c0,1.4-1.13,2.53-2.53,2.53h0c-1.4,0-2.53-1.13-2.53-2.53Z"/>
  <path class="st0" d="M506.41,146.79c-2.15,0-4.09-.5-5.82-1.5s-3.11-2.37-4.13-4.1c-1.02-1.73-1.53-3.67-1.53-5.82s.51-4.13,1.53-5.85,2.39-3.09,4.13-4.13c1.73-1.03,3.67-1.55,5.82-1.55,1.72,0,3.37.33,4.94.99.74.31,1.44.68,2.08,1.12,1.16.78,1.36,2.41.41,3.43h0c-.78.84-2.05.97-2.99.3-.4-.28-.81-.52-1.23-.71-.97-.44-2.01-.67-3.09-.67-1.23,0-2.35.31-3.35.92-1,.62-1.8,1.45-2.39,2.51-.59,1.06-.88,2.26-.88,3.61s.29,2.51.88,3.59c.59,1.07,1.4,1.92,2.43,2.54s2.16.92,3.4.92c1.06,0,2.06-.22,2.99-.64.42-.19.83-.43,1.23-.72.89-.62,2.1-.5,2.85.28h0c.95.99.77,2.6-.37,3.36-.64.43-1.32.8-2.05,1.11-1.55.66-3.17.99-4.86.99v.02Z"/>
  <path class="st0" d="M254.74,146.79c-2.15,0-4.09-.5-5.82-1.5-1.73-1-3.11-2.37-4.13-4.1-1.02-1.73-1.53-3.67-1.53-5.82s.51-4.13,1.53-5.85,2.39-3.09,4.13-4.13c1.73-1.03,3.67-1.55,5.82-1.55,1.72,0,3.37.33,4.94.99.74.31,1.44.68,2.08,1.12,1.16.78,1.36,2.41.41,3.43h0c-.78.84-2.05.97-2.99.3-.4-.28-.81-.52-1.23-.71-.97-.44-2.01-.67-3.09-.67-1.23,0-2.35.31-3.35.92-1,.62-1.8,1.45-2.39,2.51s-.88,2.26-.88,3.61.29,2.51.88,3.59c.59,1.07,1.4,1.92,2.43,2.54s2.16.92,3.4.92c1.06,0,2.06-.22,2.99-.64.42-.19.83-.43,1.23-.72.89-.62,2.1-.5,2.85.28h0c.95.99.77,2.6-.37,3.36-.64.43-1.32.8-2.05,1.11-1.55.66-3.17.99-4.86.99v.02Z"/>
  <path class="st0" d="M288.16,143.96v-17.73c0-1.07.87-1.94,1.94-1.94h1.16c1.07,0,1.94.87,1.94,1.94h0c1.61-1.58,3.6-2.37,5.98-2.37,1.49,0,2.82.32,3.98.95,1.16.63,2.1,1.49,2.82,2.58.89-1.15,1.96-2.02,3.21-2.63,1.25-.6,2.65-.9,4.2-.9,1.64,0,3.08.37,4.33,1.12s2.23,1.77,2.95,3.08,1.08,2.83,1.08,4.58v11.32c0,1.38-1.12,2.5-2.5,2.5h0c-1.38,0-2.5-1.12-2.5-2.5v-10.54c0-1.61-.42-2.87-1.27-3.79-.85-.92-1.99-1.38-3.42-1.38-.98,0-1.87.22-2.67.65-.8.43-1.49,1.09-2.07,1.98.03.26.06.54.09.84s.04.61.04.93v11.32c0,1.38-1.12,2.5-2.5,2.5h0c-1.38,0-2.5-1.12-2.5-2.5v-10.54c0-1.61-.42-2.87-1.27-3.79-.85-.92-1.97-1.38-3.38-1.38-.98,0-1.85.2-2.63.6-.77.4-1.43.99-1.98,1.76v13.34c0,1.38-1.12,2.5-2.5,2.5h-.04c-1.38,0-2.5-1.12-2.5-2.5h.01Z"/>
  <path class="st0" d="M359.85,146.82c-1.69,0-3.19-.37-4.51-1.1-1.32-.73-2.34-1.75-3.07-3.07s-1.1-2.84-1.1-4.56v-11.63c0-1.38,1.12-2.49,2.49-2.49h0c1.38,0,2.49,1.12,2.49,2.49v10.81c0,1.58.47,2.84,1.4,3.78.93.95,2.17,1.42,3.72,1.42,1.09,0,2.06-.23,2.92-.69.86-.46,1.56-1.1,2.11-1.93v-13.39c0-1.38,1.12-2.49,2.49-2.49h.04c1.38,0,2.49,1.12,2.49,2.49v17.91c0,1.12-.9,2.02-2.02,2.02h-.99c-1.12,0-2.02-.9-2.02-2.02h0c-1.72,1.63-3.87,2.45-6.45,2.45h.01Z"/>
  <path class="st0" d="M383.96,146.92c-1.98,0-3.81-.27-5.5-.82-.84-.27-1.62-.6-2.34-.99-1.15-.62-1.46-2.13-.67-3.17h0c.66-.86,1.85-1.06,2.78-.51.69.41,1.37.73,2.05.99,1.19.44,2.39.67,3.59.67,1.43,0,2.59-.26,3.48-.8.89-.53,1.33-1.22,1.33-2.08,0-.69-.26-1.23-.77-1.63-.52-.4-1.32-.69-2.41-.86l-4.13-.6c-2.21-.31-3.87-1.01-4.98-2.08s-1.68-2.48-1.68-4.23c0-1.37.37-2.57,1.1-3.59.73-1.02,1.77-1.81,3.11-2.39,1.35-.57,2.92-.86,4.73-.86,1.6,0,3.16.23,4.66.69.77.23,1.51.53,2.24.89,1.13.56,1.43,2.04.68,3.06h0c-.61.82-1.71,1.06-2.62.6-.68-.34-1.34-.62-1.99-.83-1.12-.36-2.25-.54-3.4-.54s-2.17.24-2.9.71c-.73.47-1.1,1.11-1.1,1.91,0,.72.26,1.27.77,1.65.51.39,1.37.67,2.58.84l4.08.6c2.21.29,3.88.97,5.03,2.04,1.15,1.08,1.72,2.47,1.72,4.19,0,1.38-.42,2.6-1.25,3.67-.83,1.07-1.96,1.92-3.37,2.54-1.42.62-3.03.92-4.83.92h.01Z"/>
  <path class="st0" d="M517.8,143.99v-25.3c0-1.17.81-2.18,1.95-2.43h0c1.55-.35,3.03.84,3.03,2.43v7.92c1.67-1.64,3.8-2.47,6.38-2.47,1.67,0,3.16.37,4.45,1.11,1.29.74,2.3,1.75,3.04,3.04s1.11,2.8,1.11,4.53v11.17c0,1.37-1.11,2.49-2.49,2.49h0c-1.37,0-2.49-1.11-2.49-2.49v-10.4c0-1.59-.45-2.83-1.36-3.74s-2.13-1.36-3.66-1.36c-1.08,0-2.04.22-2.87.66s-1.54,1.06-2.11,1.85v13c0,1.37-1.11,2.49-2.49,2.49h0c-1.37,0-2.49-1.11-2.49-2.49h0Z"/>
  <path class="st0" d="M325.95,152.13v-26.01c0-1.08.87-1.95,1.95-1.95h.94c1.56,0,1.93,1.07,1.93,2.24h0c1.79-1.51,3.91-2.26,6.37-2.26,2.07,0,3.93.5,5.58,1.49s2.95,2.32,3.92,3.98c.96,1.66,1.45,3.54,1.45,5.64s-.49,3.94-1.47,5.62-2.3,3.01-3.96,4-3.53,1.49-5.6,1.49c-1.15,0-2.24-.17-3.29-.52-1.05-.35-2.02-.83-2.91-1.45v7.73c0,1.35-1.1,2.45-2.45,2.45h0c-1.35,0-2.45-1.1-2.45-2.45h0ZM336.43,142.13c1.31,0,2.48-.3,3.5-.9,1.02-.6,1.83-1.42,2.43-2.45s.9-2.21.9-3.52-.3-2.49-.9-3.52-1.42-1.85-2.45-2.45c-1.04-.6-2.2-.9-3.48-.9-1.12,0-2.16.2-3.12.61-.38.16-.73.34-1.06.55s-.61.43-.89.68c-.33.3-.5.73-.5,1.17v7.61c0,.59.27,1.15.73,1.52.12.1.24.19.37.27.41.28.86.53,1.36.73.99.41,2.03.61,3.12.61h0Z"/>
  <path class="st0" d="M398.53,116.94h0c1.32,0,2.39,1.07,2.39,2.39v7.54c.87-.6,1.82-1.07,2.84-1.41s2.09-.51,3.21-.51c2.02,0,3.83.48,5.45,1.45s2.91,2.27,3.86,3.9c.95,1.64,1.43,3.46,1.43,5.47s-.47,3.87-1.41,5.5c-.94,1.62-2.21,2.91-3.82,3.88-1.61.97-3.42,1.45-5.43,1.45-2.4,0-4.47-.73-6.21-2.21v.59c0,.73-.59,1.33-1.33,1.33h-1.47c-1.05,0-1.9-.85-1.9-1.9v-25.09c0-1.32,1.07-2.39,2.39-2.39h0ZM403.31,129.67c-.48.2-.92.43-1.32.71-.12.09-.24.17-.36.27-.45.36-.71.91-.71,1.48v7.42c0,.43.17.85.49,1.14.27.24.56.47.87.66s.67.39,1.03.54c.94.39,1.95.59,3.05.59,1.25,0,2.38-.29,3.39-.88,1.01-.59,1.8-1.38,2.39-2.39.59-1.01.88-2.15.88-3.43s-.29-2.42-.88-3.43-1.38-1.81-2.37-2.39c-1-.59-2.13-.88-3.41-.88-1.06,0-2.08.2-3.05.59h0Z"/>
</svg>