<?xml version="1.0" encoding="UTF-8" standalone="no"?>
<svg
   id="Calque_1"
   version="1.1"
   viewBox="0 0 185 185.00001"
   sodipodi:docname="F6df_260204_neuro@icon_only.svg"
   width="185"
   height="185"
   inkscape:version="1.4.2 (f4327f4, 2025-05-13)"
   xmlns:inkscape="http://www.inkscape.org/namespaces/inkscape"
   xmlns:sodipodi="http://sodipodi.sourceforge.net/DTD/sodipodi-0.dtd"
   xmlns="http://www.w3.org/2000/svg"
   xmlns:svg="http://www.w3.org/2000/svg">
  <sodipodi:namedview
     id="namedview24"
     pagecolor="#ffffff"
     bordercolor="#000000"
     borderopacity="0.25"
     inkscape:showpageshadow="2"
     inkscape:pageopacity="0.0"
     inkscape:pagecheckerboard="0"
     inkscape:deskcolor="#d1d1d1"
     inkscape:zoom="1.5857143"
     inkscape:cx="279.68468"
     inkscape:cy="67.162162"
     inkscape:window-width="1920"
     inkscape:window-height="1009"
     inkscape:window-x="-8"
     inkscape:window-y="-8"
     inkscape:window-maximized="1"
     inkscape:current-layer="Calque_1" />
  <!-- Generator: Adobe Illustrator 30.0.0, SVG Export Plug-In . SVG Version: 2.1.1 Build 123)  -->
  <defs
     id="defs5">
    <style
       id="style1">
      .st0 {
        fill: #58acde;
      }

      .st1 {
        fill: url(#Dégradé_sans_nom);
      }

      .st2 {
        fill: #305da3;
      }
    </style>
    <linearGradient
       id="Dégradé_sans_nom"
       data-name="Dégradé sans nom"
       x1="98.690002"
       y1="186.12"
       x2="98.690002"
       y2="4.9499998"
       gradientTransform="matrix(1,0,0,-1,-6.19,189.04994)"
       gradientUnits="userSpaceOnUse">
      <stop
         offset="0"
         stop-color="#264b9a"
         id="stop1" />
      <stop
         offset=".3"
         stop-color="#3176b9"
         id="stop2" />
      <stop
         offset=".6"
         stop-color="#3a9cd5"
         id="stop3" />
      <stop
         offset=".85"
         stop-color="#40b3e6"
         id="stop4" />
      <stop
         offset="1"
         stop-color="#43bced"
         id="stop5" />
    </linearGradient>
  </defs>
  <path
     class="st1"
     d="m 25.7,70.429937 21.45,12.39 v 17.770003 l -1.9,1.1 -16.85,9.59 c -0.56,-0.27 -1.19,-0.42 -1.85,-0.42 -2.38,0 -4.31,1.93 -4.31,4.31 0,2.38 1.93,4.31 4.31,4.31 2.38,0 4.25,-1.87 4.3,-4.21 l 3.14,-1.79 v 0.08 l 15.9,-9.18 17.17,9.91 v 27.94 l -7.72,6.64 c -0.42,-0.14 -0.88,-0.22 -1.35,-0.22 -2.38,0 -4.31,1.93 -4.31,4.31 0,2.38 1.93,4.31 4.31,4.31 2.38,0 4.31,-1.93 4.31,-4.31 0,-0.25 -0.02,-0.49 -0.06,-0.72 l 4.82,-4.15 v 0 l 0.15,-0.13 2.08,-1.79 2.08,1.79 0.14,0.13 4.82,4.15 c -0.04,0.23 -0.06,0.48 -0.06,0.72 0,2.38 1.93,4.31 4.31,4.31 2.38,0 4.31,-1.93 4.31,-4.31 0,-2.38 -1.93,-4.31 -4.31,-4.31 -0.47,0 -0.92,0.08 -1.35,0.22 l -7.72,-6.64 v -30.13 l -19.92,-11.5 V 82.829937 l 17.97,-10.38 9.05,5.72 c 1.03,0.65 2.42,0.33 3.06,-0.69 0.65,-1.03 0.34,-2.42 -0.69,-3.06 l -9.47,-5.98 v -24.72 c 1.09,-0.78 1.81,-2.06 1.81,-3.51 0,-2.38 -1.93,-4.31 -4.31,-4.31 -2.38,0 -4.31,1.93 -4.31,4.31 0,1.68 0.96,3.13 2.36,3.84 v 25.09 l -17.17,9.91 -19.59,-11.31 v -28.27 l 0.02,-0.14 c 0.8,-5.06 3.29,-9.09 8.08,-11.12 l 8.73,-3.89 v 31.72 c -1.25,0.75 -2.08,2.12 -2.08,3.69 0,2.38 1.93,4.31 4.31,4.31 2.38,0 4.31,-1.93 4.31,-4.31 0,-1.57 -0.84,-2.93 -2.08,-3.69 v -33.71 l 11.12,-4.95 0.05,-0.02 c 5.28,-2.01 9.86,-0.29 14.33,2.63 l 0.11,0.07 6.44,5.62 c 6.81,5.33 6.81,8.64 6.81,16.4 v 56.89 l -11.43,-5.9 c -0.09,-2.3 -1.98,-4.14 -4.3,-4.14 -2.32,0 -4.31,1.93 -4.31,4.31 0,2.38 1.93,4.31 4.31,4.31 0.76,0 1.48,-0.2 2.1,-0.54 l 13.48,7.730003 v 44.39 c 0.09,6.11 -1.77,10.7 -5.46,13.87 l -12.44,9.73 -0.1,0.06 c -4.94,2.94 -10.09,3.11 -15.24,0.64 l -0.06,-0.03 -19.2,-10.95 h -0.02 c -4.52,-2.72 -7.07,-6.76 -7.44,-12.03 v -8.78 l 18.14,-10.69 c 0.62,0.34 1.32,0.53 2.08,0.53 2.38,0 4.31,-1.93 4.31,-4.31 0,-2.38 -1.93,-4.31 -4.31,-4.31 -2.38,0 -4.27,1.89 -4.3,4.24 l -17.03,10.09 -16.82,-14.66 -0.03,-0.03 c -2.56,-2.46 -3.71,-5.53 -3.89,-9.04 v -11.71 l 15.87,-9.100003 c 0.62,0.35 1.33,0.54 2.1,0.54 2.38,0 4.31,-1.93 4.31,-4.31 0,-2.38 -1.93,-4.31 -4.31,-4.31 -2.38,0 -4.26,1.88 -4.3,4.21 l -13.66,7.84 v -18.27 c 0.23,-5.37 1.93,-10.53 6.93,-13.19 l 0.05,-0.02 10.51,-4.85 -0.25,10.15 H 25.7 Z m 80.09,94.120003 c 0,5.71 4.63,10.33 10.33,10.33 5.7,0 10.33,-4.63 10.33,-10.33 0,-5.7 -4.63,-10.33 -10.33,-10.33 -5.7,0 -10.33,4.63 -10.33,10.33 z m 44.96,-54.34 c 0,5.71 4.63,10.33 10.33,10.33 5.7,0 10.33,-4.63 10.33,-10.33 0,-5.7 -4.63,-10.330003 -10.33,-10.330003 -5.7,0 -10.33,4.630003 -10.33,10.330003 z M 94.8,87.999937 c 0,5.71 4.63,10.33 10.33,10.33 5.7,0 10.33,-4.63 10.33,-10.33 0,-5.7 -4.63,-10.33 -10.33,-10.33 -5.7,0 -10.33,4.63 -10.33,10.33 z m 8.58,-62.27 c 0,4.74 3.84,8.58 8.58,8.58 4.74,0 8.58,-3.84 8.58,-8.58 0,-4.74 -3.84,-8.58 -8.58,-8.58 -4.74,0 -8.58,3.84 -8.58,8.58 z m 39.05,7.08 c 0,2.67 2.16,4.83 4.83,4.83 2.67,0 4.83,-2.16 4.83,-4.83 0,-2.67 -2.16,-4.83 -4.83,-4.83 -2.67,0 -4.83,2.16 -4.83,4.83 z m -15.4,40.6 c 0,4.57 3.7,8.27 8.27,8.27 4.57,0 8.27,-3.7 8.27,-8.27 0,-4.57 -3.7,-8.27 -8.27,-8.27 -4.57,0 -8.27,3.7 -8.27,8.27 z m -17.85,41.540003 c 0,5.44 4.41,9.86 9.86,9.86 5.45,0 9.86,-4.41 9.86,-9.86 0,-5.45 -4.41,-9.86 -9.86,-9.86 -5.45,0 -9.86,4.41 -9.86,9.86 z m 28.39,35.04 c 0,5.34 4.33,9.68 9.68,9.68 5.35,0 9.68,-4.33 9.68,-9.68 0,-5.35 -4.33,-9.68 -9.68,-9.68 -5.35,0 -9.68,4.33 -9.68,9.68 z m 1.35,-22.48 c 0,3.18 2.58,5.76 5.76,5.76 3.18,0 5.76,-2.58 5.76,-5.76 0,-3.18 -2.58,-5.76 -5.76,-5.76 -3.18,0 -5.76,2.58 -5.76,5.76 z m 20.13,-53.640003 c 0,4.82 3.91,8.73 8.73,8.73 4.82,0 8.73,-3.91 8.73,-8.73 0,-4.82 -3.91,-8.73 -8.73,-8.73 -4.82,0 -8.73,3.91 -8.73,8.73 z m -30.4,19.67 c 0,4.12 3.34,7.470003 7.46,7.470003 4.12,0 7.47,-3.340003 7.47,-7.470003 0,-4.13 -3.34,-7.47 -7.47,-7.47 -4.13,0 -7.46,3.34 -7.46,7.47 z m -30.2,-43.27 c 0,4.92 3.99,8.91 8.91,8.91 4.92,0 8.91,-3.99 8.91,-8.91 0,-4.92 -3.99,-8.91 -8.91,-8.91 -4.92,0 -8.91,3.99 -8.91,8.91 z m -2.46,89.700003 c 0,4.12 3.34,7.47 7.47,7.47 4.13,0 7.46,-3.34 7.46,-7.47 0,-4.13 -3.34,-7.47 -7.46,-7.47 -4.12,0 -7.47,3.34 -7.47,7.47 z m 23,-100.060003 c 0,4.92 3.99,8.91 8.91,8.91 4.92,0 8.91,-3.99 8.91,-8.91 0,-4.92 -3.99,-8.91 -8.91,-8.91 -4.92,0 -8.91,3.99 -8.91,8.91 z m 17.85,14.38 c 0,2.97 2.4,5.37 5.37,5.37 2.97,0 5.37,-2.4 5.37,-5.37 0,-2.97 -2.4,-5.37 -5.37,-5.37 -2.97,0 -5.37,2.4 -5.37,5.37 z m -11.87,87.400003 c 0,2.16 1.75,3.92 3.92,3.92 2.17,0 3.92,-1.75 3.92,-3.92 0,-2.17 -1.75,-3.92 -3.92,-3.92 -2.17,0 -3.92,1.75 -3.92,3.92 z M 110.58,69.119937 c 0,3.1 2.51,5.61 5.61,5.61 3.1,0 5.61,-2.51 5.61,-5.61 0,-3.1 -2.51,-5.61 -5.61,-5.61 -3.1,0 -5.61,2.51 -5.61,5.61 z m 41.81,-9.95 c 0,2.4 1.94,4.34 4.34,4.34 2.4,0 4.34,-1.94 4.34,-4.34 0,-2.4 -1.94,-4.34 -4.34,-4.34 -2.4,0 -4.34,1.94 -4.34,4.34 z m 6.66,70.680003 c 0,1.89 1.53,3.42 3.43,3.42 1.9,0 3.42,-1.53 3.42,-3.42 0,-1.89 -1.53,-3.42 -3.42,-3.42 -1.89,0 -3.43,1.53 -3.43,3.42 z m 4.25,-37.530003 c 0,2.23 1.81,4.03 4.04,4.03 2.23,0 4.03,-1.81 4.03,-4.03 0,-2.22 -1.81,-4.03 -4.03,-4.03 -2.22,0 -4.04,1.81 -4.04,4.03 z m -32.77,70.130003 c 0,1.86 1.5,3.36 3.36,3.36 1.86,0 3.36,-1.5 3.36,-3.36 0,-1.86 -1.5,-3.36 -3.36,-3.36 -1.86,0 -3.36,1.5 -3.36,3.36 z M 94.91,24.529937 c 0,1.88 1.52,3.4 3.4,3.4 1.88,0 3.4,-1.52 3.4,-3.4 0,-1.88 -1.52,-3.4 -3.4,-3.4 -1.88,0 -3.4,1.52 -3.4,3.4 z m 31.02,-3.39 c 0,2.51 2.04,4.55 4.55,4.55 2.51,0 4.55,-2.04 4.55,-4.55 0,-2.51 -2.04,-4.55 -4.55,-4.55 -2.51,0 -4.55,2.04 -4.55,4.55 z m -8.09,-7.92 c 0,1.86 1.51,3.37 3.37,3.37 1.86,0 3.37,-1.51 3.37,-3.37 0,-1.86 -1.51,-3.3700002 -3.37,-3.3700002 -1.86,0 -3.37,1.5100002 -3.37,3.3700002 z m -22.6,91.700003 c 0,2.16 1.75,3.92 3.92,3.92 2.17,0 3.92,-1.75 3.92,-3.92 0,-2.17 -1.75,-3.92 -3.92,-3.92 -2.17,0 -3.92,1.75 -3.92,3.92 z m 0,-35.800003 c 0,1.89 1.53,3.42 3.43,3.42 1.9,0 3.42,-1.53 3.42,-3.42 0,-1.89 -1.53,-3.42 -3.42,-3.42 -1.89,0 -3.43,1.53 -3.43,3.42 z m 61.62,-25.36 c 0,3.1 2.51,5.61 5.61,5.61 3.1,0 5.61,-2.51 5.61,-5.61 0,-3.1 -2.51,-5.61 -5.61,-5.61 -3.1,0 -5.61,2.51 -5.61,5.61 z m -41.1,120.980003 0.72,-0.37 -12.56,-24.38 15.69,-25.2 -19.96,-10.07 5.87,-16.590003 v -0.27 l -6.42,-18.73 8.63,-18.7 0.03,-0.1 4.46,-23.8 15.97,15.68 2.6,-20.38 16.01,11.13 -5.19,22.06 20.87,-10.43 -6.13,14.4 v 0.3 l 10.96,16.59 0.78,-0.13 -4.41,-32 h -0.2 l -0.39,-0.37 -20.31,10.15 4.92,-20.91 -17,-11.82 -9.89,-8.64 -1.04,-1.36 -0.32,0.91 0.74,0.97 0.06,0.06 9.36,8.18 -17.7,4.39 -10.54,-0.92 h -2.54 l -1.09,-0.25 0.23,0.76 13.48,1.18 -4.51,24.05 -8.68,18.8 -0.02,0.3 6.43,18.75 -6.06,17.130003 19.8,9.99 -15.47,24.83 12.77,24.79 v 0 z m 11.84,-124.230003 -14.84,-14.56 17.24,-4.28 -2.41,18.83 v 0 z m 39.51,33.28 -9.93,-14.61 5.68,-13.35 4.25,27.97 v 0 z m -68.45,-5.08 v 0.81 h 18.16 l -8.92,-19.04 19.91,-8.64 13.92,12.57 -6.99,19.37 32.69,2.36 -0.53,16.17 -6.2,17.770003 -0.02,0.16 1.35,19.14 -17.23,-2.26 -25.59,-12.53 -0.56,0.5 9.79,26.56 -13.07,23.39 18.56,-2.19 0.23,-0.11 13.36,-12.46 0.05,-0.05 15.22,-20.14 0.08,-0.27 -1.38,-19.56 6.22,-17.810003 v -0.24 l 0.35,-16.84 -32.19,-2.32 6.82,-18.89 c -4.9,-4.43 -9.8,-8.87 -14.71,-13.28 -7.05,3.05 -14.11,6.11 -21.15,9.18 l 8.73,18.64 h -16.9 z m 48.28,81.010003 -13.23,12.34 -16.85,1.99 12.47,-22.33 -9.57,-25.96 24.74,12.12 0.13,0.04 17.1,2.25 -14.78,19.56 h -0.01 z m -13.44,12.82 0.79,-0.19 -4.59,-19.04 18.03,7.31 -2.73,-23.94 c -5.52,4.95 -11.04,9.91 -16.56,14.86 l 0.11,0.45 -25.06,-2.43 -0.08,0.81 24.98,2.42 0.38,0.16 4.72,19.6 v 0 z m -4.16,-20.71 15.03,-13.49 2.4,21.02 -17.3,-7.01 z m -9.99,-26.63 16.57,-20.770003 8.55,33.890003 17.24,-18.19 -24.33,-16.240003 29.97,-1.17 0.19,-0.75 -32.66,-19.29 0.83,20.72 -16.99,21.290003 0.63,0.5 v 0 z m 46.59,-23.230003 -29.44,1.15 -0.76,-18.98 z m -21.04,34.730003 -8.13,-32.230003 23.7,15.820003 -15.56,16.42 v 0 z m 17.33,-82.620003 0.47,-0.66 -15.21,-10.95 -0.62,0.46 9.37,26.06 -21.03,13.98 -18.48,-4.15 11.52,-27.31 -0.75,-0.31 -11.89,28.2 c 6.59,1.48 13.18,2.95 19.76,4.44 l 21.84,-14.52 -9.14,-25.43 14.15,10.19 z m -57.44,43.71 0.7,0.41 10.76,-18.38 19.18,23.51 -36.71,11.300003 4.34,35.38 0.81,-0.1 -4.26,-34.71 37.21,-11.460003 c -6.89,-8.45 -13.78,-16.9 -20.67,-25.34 l -11.35,19.38 v 0 z m 16.41,-75.63 -1.77,-0.33 -0.27,0.77 0.71,0.13 -7.84,12.14 -0.2,-0.47 h -0.88 l 0.93,2.19 8.99,-13.93 0.33,-0.51 v 0 z m -23.28,12.51 9.62,26.95 0.76,-0.27 -9.62,-26.95 c 0,0 -0.76,0.27 -0.76,0.27 z m 7.14,63.73 30.98,5.55 0.14,-0.8 -30.98,-5.55 z M 92.63,168.67994 c 0,1.58 1.28,2.87 2.87,2.87 1.59,0 2.87,-1.28 2.87,-2.87 0,-1.59 -1.28,-2.87 -2.87,-2.87 -1.59,0 -2.87,1.28 -2.87,2.87 z m 23.05,-4.34 -19.63,3.82 7.39,-28.04 -0.78,-0.21 -7.72,29.29 20.9,-4.06 -0.15,-0.8 z"
     id="path5"
     style="fill:url(#D%C3%A9grad%C3%A9_sans_nom)" />
</svg>
